<?xml version="1.0" encoding="UTF-8"?>
<svg xmlns="http://www.w3.org/2000/svg" xmlns:xlink="http://www.w3.org/1999/xlink" width="50px" height="50px" viewBox="0 0 50 50" version="1.1">
<g id="surface1">
<path style=" stroke:none;fill-rule:nonzero;fill:rgb(10.588235%,19.215687%,22.352941%);fill-opacity:1;" d="M 13.800781 46.203125 L 13.800781 41.667969 C 13.800781 41.574219 13.75 41.480469 13.699219 41.480469 L 12.863281 41.480469 L 12.863281 39.816406 L 13.699219 39.816406 C 13.75 39.816406 13.800781 39.722656 13.800781 39.628906 L 13.800781 36.851562 L 15 36.851562 L 15 39.628906 C 15 39.722656 15.050781 39.816406 15.105469 39.816406 L 16.25 39.816406 L 16.25 41.574219 L 15.105469 41.574219 C 15.050781 41.574219 15 41.667969 15 41.757812 L 15 45.742188 C 15 47.59375 15.363281 47.777344 15.832031 47.777344 C 15.988281 47.777344 16.25 47.777344 16.40625 47.683594 L 16.40625 49.535156 C 16.199219 49.535156 15.886719 49.628906 15.519531 49.628906 C 15.105469 49.628906 13.800781 49.628906 13.800781 46.203125 Z M 45.9375 47.316406 L 46.875 46.390625 C 47.082031 47.316406 47.5 47.871094 47.96875 47.871094 C 48.332031 47.871094 48.75 47.59375 48.75 46.757812 C 48.75 46.203125 48.542969 45.925781 48.074219 45.648438 L 47.394531 45.277344 C 46.457031 44.816406 46.042969 43.796875 46.042969 42.5 C 46.042969 40.832031 46.824219 39.535156 47.917969 39.535156 C 48.75 39.535156 49.480469 40.371094 49.84375 41.667969 L 48.957031 42.59375 C 48.75 41.757812 48.386719 41.296875 47.96875 41.296875 C 47.550781 41.296875 47.292969 41.667969 47.292969 42.316406 C 47.292969 42.777344 47.5 43.242188 47.96875 43.425781 L 48.644531 43.796875 C 49.582031 44.351562 50.050781 45.277344 50.050781 46.574219 C 50.050781 48.609375 49.0625 49.628906 48.074219 49.628906 C 47.03125 49.722656 46.25 48.796875 45.9375 47.316406 Z M 42.292969 45.554688 C 42.292969 45.554688 42.238281 45.648438 42.238281 45.648438 L 42.238281 49.445312 L 41.042969 49.445312 L 41.042969 35.554688 L 42.238281 35.554688 L 42.238281 43.148438 C 42.238281 43.242188 42.238281 43.332031 42.292969 43.332031 C 42.34375 43.332031 42.394531 43.332031 42.394531 43.332031 L 44.324219 39.816406 L 45.78125 39.816406 L 43.488281 43.890625 C 43.4375 43.980469 43.4375 44.074219 43.488281 44.167969 L 45.9375 49.535156 L 44.480469 49.535156 L 42.707031 45.183594 C 42.707031 45.183594 42.65625 45.09375 42.65625 45.09375 C 42.65625 45.09375 42.605469 45.09375 42.605469 45.09375 Z M 40.46875 41.109375 L 39.6875 42.40625 C 39.269531 41.851562 38.800781 41.574219 38.332031 41.574219 C 37.34375 41.574219 36.5625 42.871094 36.5625 44.722656 C 36.5625 46.480469 37.292969 47.871094 38.332031 47.871094 C 38.75 47.871094 39.21875 47.59375 39.6875 47.035156 L 40.363281 48.332031 C 39.375 49.628906 38.855469 49.816406 38.175781 49.816406 C 37.34375 49.816406 36.667969 49.351562 36.09375 48.332031 C 35.574219 47.40625 35.3125 46.109375 35.3125 44.722656 C 35.3125 41.757812 36.511719 39.628906 38.175781 39.628906 C 38.800781 39.535156 39.582031 39.722656 40.46875 41.109375 Z M 34.84375 36.851562 C 34.84375 37.59375 34.53125 38.148438 34.113281 38.148438 C 33.699219 38.148438 33.386719 37.59375 33.386719 36.851562 C 33.386719 36.109375 33.699219 35.554688 34.113281 35.554688 C 34.480469 35.554688 34.84375 36.203125 34.84375 36.851562 Z M 34.738281 49.445312 L 33.542969 49.445312 L 33.542969 39.816406 L 34.738281 39.816406 Z M 30.886719 45.183594 L 30.886719 49.445312 L 29.6875 49.445312 L 29.6875 39.816406 L 30.886719 39.816406 L 30.886719 41.019531 C 30.886719 41.109375 30.886719 41.203125 30.9375 41.203125 C 30.988281 41.203125 31.042969 41.203125 31.042969 41.109375 C 31.355469 40.183594 31.925781 39.628906 32.550781 39.628906 C 32.65625 39.628906 32.707031 39.628906 32.761719 39.628906 L 32.761719 41.851562 C 32.707031 41.851562 32.605469 41.851562 32.5 41.851562 C 31.457031 41.757812 30.886719 43.148438 30.886719 45.183594 Z M 24.425781 44.628906 C 24.425781 42.871094 25.15625 41.480469 26.144531 41.480469 C 27.082031 41.480469 27.863281 42.871094 27.863281 44.628906 C 27.863281 46.390625 27.136719 47.777344 26.144531 47.777344 C 25.15625 47.777344 24.425781 46.390625 24.425781 44.628906 Z M 24.53125 48.332031 C 24.582031 48.332031 24.582031 48.332031 24.53125 48.332031 C 24.582031 48.332031 24.636719 48.332031 24.6875 48.425781 C 25.105469 49.257812 25.730469 49.722656 26.40625 49.722656 C 27.917969 49.722656 29.011719 47.5 29.011719 44.628906 C 29.011719 43.242188 28.75 41.945312 28.230469 41.019531 C 27.761719 40.09375 27.082031 39.535156 26.355469 39.535156 C 25.675781 39.535156 25.050781 40 24.636719 40.925781 C 24.636719 40.925781 24.582031 41.019531 24.53125 40.925781 C 24.480469 40.925781 24.480469 40.832031 24.480469 40.742188 L 24.480469 35.464844 L 23.28125 35.464844 L 23.28125 49.351562 L 24.480469 49.351562 L 24.480469 48.332031 C 24.480469 48.425781 24.480469 48.332031 24.53125 48.332031 Z M 19.53125 47.777344 C 18.59375 47.777344 17.8125 46.390625 17.8125 44.628906 C 17.8125 42.871094 18.542969 41.480469 19.53125 41.480469 C 20.46875 41.480469 21.25 42.871094 21.25 44.628906 C 21.25 46.390625 20.46875 47.777344 19.53125 47.777344 Z M 22.394531 49.445312 L 22.394531 39.816406 L 21.199219 39.816406 L 21.199219 40.742188 C 21.199219 40.832031 21.199219 40.925781 21.144531 40.925781 C 21.09375 40.925781 21.042969 40.925781 21.042969 40.925781 C 20.625 40.09375 20.050781 39.628906 19.324219 39.628906 C 17.8125 39.628906 16.71875 41.851562 16.71875 44.722656 C 16.71875 47.59375 17.863281 49.816406 19.324219 49.816406 C 20 49.816406 20.625 49.351562 21.042969 48.425781 C 21.042969 48.332031 21.09375 48.332031 21.144531 48.425781 C 21.199219 48.425781 21.199219 48.519531 21.199219 48.609375 L 21.199219 49.628906 Z M 9.425781 47.777344 C 8.488281 47.777344 7.707031 46.390625 7.707031 44.628906 C 7.707031 42.871094 8.4375 41.480469 9.425781 41.480469 C 10.363281 41.480469 11.144531 42.871094 11.144531 44.628906 C 11.144531 46.390625 10.363281 47.777344 9.425781 47.777344 Z M 12.238281 49.445312 L 12.238281 39.816406 L 11.042969 39.816406 L 11.042969 40.742188 C 11.042969 40.832031 11.042969 40.925781 10.988281 40.925781 C 10.9375 40.925781 10.886719 40.925781 10.886719 40.925781 C 10.46875 40.09375 9.894531 39.628906 9.167969 39.628906 C 7.65625 39.628906 6.5625 41.851562 6.5625 44.722656 C 6.5625 47.59375 7.707031 49.816406 9.167969 49.816406 C 9.84375 49.816406 10.46875 49.351562 10.886719 48.425781 C 10.886719 48.332031 10.9375 48.332031 10.988281 48.425781 C 11.042969 48.425781 11.042969 48.519531 11.042969 48.609375 L 11.042969 49.628906 Z M 3.019531 47.777344 C 2.082031 47.777344 1.300781 46.390625 1.300781 44.628906 C 1.300781 42.871094 2.03125 41.480469 3.019531 41.480469 C 3.957031 41.480469 4.738281 42.871094 4.738281 44.628906 C 4.738281 46.390625 3.957031 47.777344 3.019531 47.777344 Z M 5.832031 49.445312 L 5.832031 35.554688 L 4.636719 35.554688 L 4.636719 40.742188 C 4.636719 40.832031 4.636719 40.925781 4.582031 40.925781 C 4.53125 40.925781 4.480469 40.925781 4.480469 40.925781 C 4.0625 40.09375 3.4375 39.628906 2.761719 39.628906 C 1.25 39.628906 0.15625 41.851562 0.15625 44.722656 C 0.15625 46.109375 0.417969 47.40625 0.9375 48.332031 C 1.40625 49.257812 2.082031 49.816406 2.8125 49.816406 C 3.488281 49.816406 4.113281 49.351562 4.53125 48.425781 C 4.53125 48.425781 4.582031 48.332031 4.636719 48.425781 C 4.6875 48.425781 4.6875 48.519531 4.6875 48.609375 L 4.6875 49.628906 Z M 5.832031 49.445312 "/>
<path style=" stroke:none;fill-rule:nonzero;fill:rgb(100%,21.176471%,12.941177%);fill-opacity:1;" d="M 31.09375 11.574219 L 24.582031 18.148438 L 17.65625 11.109375 L 17.34375 11.390625 L 17.34375 16.480469 L 24.636719 23.796875 L 31.144531 17.222656 L 31.144531 19.90625 L 24.636719 26.480469 L 17.707031 19.445312 L 17.394531 19.722656 L 17.394531 20.554688 L 24.6875 27.871094 L 31.980469 20.554688 L 31.980469 15.742188 L 31.667969 15.464844 L 24.6875 22.5 L 18.175781 15.925781 L 18.175781 13.242188 L 24.6875 19.816406 L 31.980469 12.5 L 31.980469 7.316406 L 31.613281 6.945312 L 24.6875 13.890625 L 18.4375 7.683594 L 24.582031 1.480469 L 29.6875 6.574219 L 30.15625 6.109375 L 30.15625 5.554688 L 24.582031 0 L 17.292969 7.316406 L 17.292969 8.054688 L 24.582031 15.371094 L 31.09375 8.796875 Z M 31.09375 11.574219 "/>
</g>
</svg>
