<?xml version="1.0" encoding="UTF-8"?>
<svg xmlns="http://www.w3.org/2000/svg" xmlns:xlink="http://www.w3.org/1999/xlink" width="50px" height="50px" viewBox="0 0 50 50" version="1.1">
<g id="surface1">
<path style=" stroke:none;fill-rule:evenodd;fill:rgb(16.078432%,70.980394%,90.980393%);fill-opacity:1;" d="M 46.054688 21.597656 L 40.425781 25.003906 L 46.054688 28.378906 C 47.46875 29.238281 47.953125 31.140625 47.136719 32.625 C 46.316406 34.113281 44.507812 34.621094 43.09375 33.761719 L 33.011719 27.664062 C 32.070312 27.089844 31.503906 26.023438 31.53125 24.882812 C 31.539062 24.640625 31.574219 24.398438 31.636719 24.164062 C 31.84375 23.378906 32.335938 22.710938 33.003906 22.300781 L 43.085938 16.222656 C 43.769531 15.808594 44.578125 15.695312 45.339844 15.910156 C 46.101562 16.125 46.75 16.648438 47.144531 17.367188 C 47.539062 18.078125 47.644531 18.925781 47.441406 19.722656 C 47.238281 20.515625 46.738281 21.191406 46.054688 21.597656 Z M 40.726562 38.105469 L 30.652344 32.015625 C 29.734375 31.460938 28.605469 31.460938 27.6875 32.015625 C 26.769531 32.566406 26.199219 33.589844 26.1875 34.699219 L 26.1875 46.863281 C 26.242188 48.542969 27.554688 49.875 29.15625 49.875 C 30.757812 49.875 32.070312 48.542969 32.121094 46.863281 L 32.121094 40.046875 L 37.761719 43.449219 C 39.179688 44.3125 40.988281 43.804688 41.808594 42.316406 C 42.625 40.832031 42.144531 38.929688 40.726562 38.070312 Z M 29.113281 26.207031 L 24.910156 30.566406 C 24.765625 30.707031 24.582031 30.789062 24.386719 30.796875 L 23.152344 30.796875 C 22.957031 30.785156 22.769531 30.703125 22.625 30.566406 L 18.449219 26.191406 C 18.316406 26.042969 18.238281 25.847656 18.230469 25.644531 L 18.230469 24.355469 C 18.242188 24.148438 18.316406 23.957031 18.449219 23.804688 L 22.625 19.429688 C 22.769531 19.292969 22.957031 19.210938 23.152344 19.203125 L 24.386719 19.203125 C 24.582031 19.210938 24.765625 19.292969 24.910156 19.429688 L 29.097656 23.804688 C 29.230469 23.957031 29.304688 24.152344 29.316406 24.355469 L 29.316406 25.644531 C 29.304688 25.847656 29.230469 26.042969 29.097656 26.191406 Z M 25.765625 24.992188 C 25.75 24.785156 25.664062 24.585938 25.53125 24.433594 L 24.316406 23.171875 C 24.171875 23.035156 23.984375 22.957031 23.789062 22.945312 L 23.746094 22.945312 C 23.550781 22.953125 23.367188 23.035156 23.222656 23.171875 L 22.011719 24.433594 C 21.878906 24.585938 21.804688 24.785156 21.796875 24.988281 L 21.796875 25.035156 C 21.804688 25.238281 21.878906 25.433594 22.011719 25.582031 L 23.230469 26.835938 C 23.375 26.972656 23.558594 27.054688 23.753906 27.066406 L 23.796875 27.066406 C 23.992188 27.054688 24.179688 26.972656 24.324219 26.835938 L 25.535156 25.570312 C 25.667969 25.421875 25.746094 25.226562 25.757812 25.023438 Z M 6.808594 11.902344 L 16.890625 17.972656 C 17.808594 18.527344 18.9375 18.527344 19.855469 17.972656 C 20.773438 17.421875 21.34375 16.398438 21.355469 15.285156 L 21.355469 3.132812 C 21.300781 1.453125 19.988281 0.121094 18.386719 0.121094 C 16.789062 0.121094 15.476562 1.453125 15.421875 3.132812 L 15.421875 9.949219 L 9.773438 6.542969 C 8.359375 5.683594 6.546875 6.191406 5.730469 7.675781 C 4.910156 9.164062 5.394531 11.0625 6.808594 11.925781 Z M 28.933594 18.390625 C 29.527344 18.441406 30.121094 18.296875 30.640625 17.984375 L 40.71875 11.886719 C 42.132812 11.023438 42.617188 9.121094 41.796875 7.636719 C 40.980469 6.148438 39.167969 5.640625 37.753906 6.503906 L 32.113281 9.941406 L 32.113281 3.121094 C 32.058594 1.441406 30.746094 0.109375 29.144531 0.109375 C 27.546875 0.109375 26.234375 1.441406 26.179688 3.121094 L 26.179688 15.285156 C 26.175781 16.921875 27.378906 18.277344 28.933594 18.390625 Z M 18.613281 31.609375 C 18.015625 31.558594 17.421875 31.699219 16.902344 32.015625 L 6.808594 38.089844 C 5.394531 38.949219 4.910156 40.851562 5.730469 42.339844 C 6.546875 43.824219 8.359375 44.332031 9.773438 43.472656 L 15.421875 40.066406 L 15.421875 46.886719 C 15.476562 48.566406 16.789062 49.898438 18.386719 49.898438 C 19.988281 49.898438 21.300781 48.566406 21.355469 46.886719 L 21.355469 34.699219 C 21.351562 33.074219 20.15625 31.726562 18.613281 31.609375 Z M 15.878906 25.914062 C 16.28125 24.53125 15.710938 23.039062 14.511719 22.328125 L 4.441406 16.230469 C 3.023438 15.378906 1.21875 15.886719 0.398438 17.367188 C 0.00390625 18.078125 -0.101562 18.925781 0.101562 19.722656 C 0.304688 20.515625 0.804688 21.191406 1.484375 21.597656 L 7.113281 25.003906 L 1.484375 28.378906 C 0.0703125 29.238281 -0.414062 31.136719 0.402344 32.625 C 1.21875 34.109375 3.027344 34.621094 4.441406 33.761719 L 14.511719 27.664062 C 15.160156 27.28125 15.648438 26.65625 15.875 25.914062 Z M 47.699219 5.742188 L 47.246094 5.742188 L 47.246094 6.328125 L 47.699219 6.328125 C 47.90625 6.328125 48.039062 6.226562 48.039062 6.039062 C 48.039062 5.851562 47.917969 5.742188 47.699219 5.742188 Z M 46.695312 5.203125 L 47.722656 5.203125 C 48.273438 5.203125 48.644531 5.523438 48.644531 6.019531 C 48.648438 6.296875 48.507812 6.558594 48.273438 6.699219 L 48.675781 7.300781 L 48.675781 7.425781 L 48.097656 7.425781 L 47.699219 6.851562 L 47.246094 6.851562 L 47.246094 7.425781 L 46.691406 7.425781 Z M 49.53125 6.359375 C 49.566406 5.808594 49.378906 5.269531 49.015625 4.875 C 48.652344 4.476562 48.148438 4.253906 47.625 4.265625 C 46.496094 4.265625 45.742188 5.125 45.742188 6.359375 C 45.742188 7.535156 46.496094 8.449219 47.625 8.449219 C 48.148438 8.460938 48.65625 8.242188 49.019531 7.84375 C 49.382812 7.449219 49.570312 6.910156 49.535156 6.359375 Z M 50.003906 6.359375 C 50.003906 7.753906 49.113281 8.921875 47.613281 8.921875 C 46.109375 8.921875 45.257812 7.742188 45.257812 6.359375 C 45.257812 4.972656 46.136719 3.796875 47.613281 3.796875 C 49.085938 3.796875 50 4.960938 50 6.359375 Z M 50.003906 6.359375 "/>
</g>
</svg>
